<svg width="24" height="24" viewBox="0 0 24 24" fill="none" xmlns="http://www.w3.org/2000/svg">
<path d="M20.953 12.2391C20.8138 11.972 20.5978 11.7526 20.3329 11.6091C20.0234 11.4537 19.6788 11.3814 19.3329 11.3991H12.883C12.5371 11.3814 12.1925 11.4537 11.883 11.6091C11.6128 11.7489 11.3927 11.969 11.253 12.2391C11.101 12.5496 11.0321 12.8941 11.053 13.2391V17.7391C11.0197 18.2439 11.1233 18.7483 11.353 19.1991C11.5531 19.5872 11.8671 19.9047 12.253 20.1091C12.7438 20.3473 13.289 20.4508 13.833 20.4091H18.363C18.9102 20.4516 19.4589 20.3481 19.953 20.1091C20.332 19.9002 20.644 19.5881 20.853 19.2091C21.0919 18.715 21.1955 18.1663 21.153 17.6191V13.2391C21.1767 12.8939 21.1076 12.5487 20.953 12.2391ZM12.453 13.2391C12.4398 13.1462 12.4398 13.052 12.453 12.9591C12.4569 12.9475 12.4635 12.937 12.4721 12.9283C12.4808 12.9196 12.4913 12.9131 12.503 12.9091C12.5625 12.8989 12.6234 12.8989 12.683 12.9091H19.303C19.396 12.8989 19.4899 12.8989 19.5829 12.9091C19.5829 12.9091 19.583 12.9091 19.643 12.9691C19.6519 13.0254 19.6519 13.0828 19.643 13.1391V17.8691C19.6658 18.124 19.6173 18.3802 19.5029 18.6091C19.4368 18.7556 19.3195 18.873 19.1729 18.9391C18.944 19.0535 18.6878 19.102 18.433 19.0791H13.533C13.2749 19.1002 13.016 19.0519 12.783 18.9391C12.6407 18.867 12.5251 18.7514 12.453 18.6091C12.3316 18.3151 12.2869 17.9951 12.323 17.6791L12.453 13.2391Z" fill="white"/>
<path d="M9.50326 18.6595H8.38326C7.55043 18.7354 6.7123 18.5906 5.95326 18.2395C5.4888 17.9984 5.10865 17.6217 4.86326 17.1595C4.53094 16.434 4.39309 15.6345 4.46326 14.8395V10.4195C4.42079 10.055 4.47601 9.6857 4.62326 9.34952C4.71531 9.18047 4.8542 9.04158 5.02326 8.94952C5.35943 8.80228 5.72871 8.74706 6.09326 8.78952H14.7033C15.0055 8.76573 15.3087 8.82086 15.5833 8.94952C15.7492 9.04571 15.8871 9.1836 15.9833 9.34952C16.0531 9.56054 16.1 9.77847 16.1233 9.99952C16.1552 10.1792 16.255 10.3397 16.4021 10.4477C16.5492 10.5557 16.7323 10.6029 16.9133 10.5795C17.097 10.5492 17.2619 10.4488 17.3733 10.2995C17.4265 10.2269 17.4646 10.1444 17.4852 10.0567C17.5058 9.96912 17.5085 9.87824 17.4933 9.78952C17.4567 9.41281 17.3587 9.04461 17.2033 8.69952C16.9849 8.26821 16.6346 7.91787 16.2033 7.69952C15.6714 7.43272 15.0761 7.3185 14.4833 7.36952H14.2233C14.0733 6.42983 13.5932 5.57439 12.8692 4.95682C12.1453 4.33925 11.2248 4 10.2733 4C9.32167 4 8.40125 4.33925 7.67729 4.95682C6.95333 5.57439 6.47325 6.42983 6.32326 7.36952H6.06326C5.47039 7.31744 4.87475 7.43172 4.34326 7.69952C3.91515 7.92227 3.56601 8.27142 3.34326 8.69952C3.09969 9.1961 2.98941 9.74747 3.02326 10.2995V14.7095C2.92829 15.7787 3.1253 16.8535 3.59326 17.8195C3.96241 18.5272 4.53781 19.1061 5.24326 19.4795C6.2133 19.9459 7.29096 20.1428 8.36326 20.0495H9.50326C9.68717 20.0469 9.86266 19.972 9.99178 19.841C10.1209 19.71 10.1933 19.5335 10.1933 19.3495C10.1933 19.1665 10.1206 18.991 9.99116 18.8616C9.86176 18.7322 9.68626 18.6595 9.50326 18.6595ZM7.72326 7.39952C7.80123 6.77821 8.10335 6.20674 8.57289 5.79244C9.04243 5.37814 9.64707 5.14952 10.2733 5.14952C10.8994 5.14952 11.5041 5.37814 11.9736 5.79244C12.4432 6.20674 12.7453 6.77821 12.8233 7.39952H7.72326Z" fill="white"/>
<path d="M16.0434 16.8097H16.1234C16.4573 16.8136 16.7887 16.7515 17.0985 16.6267C17.4083 16.502 17.6903 16.3171 17.9283 16.0829C18.1662 15.8486 18.3555 15.5695 18.4851 15.2618C18.6147 14.954 18.6821 14.6236 18.6834 14.2897C18.6834 14.1982 18.6652 14.1077 18.6299 14.0233C18.5946 13.9389 18.5429 13.8624 18.4778 13.7982C18.4126 13.734 18.3354 13.6834 18.2505 13.6493C18.1656 13.6152 18.0748 13.5984 17.9834 13.5997C17.8897 13.6009 17.7973 13.621 17.7115 13.6586C17.6257 13.6962 17.5484 13.7507 17.484 13.8188C17.4197 13.8869 17.3697 13.9671 17.3369 14.0549C17.3042 14.1427 17.2894 14.2361 17.2934 14.3297C17.2804 14.6285 17.1504 14.9103 16.9316 15.1142C16.7127 15.3181 16.4224 15.4278 16.1234 15.4197H16.0434C15.895 15.425 15.747 15.4011 15.6078 15.3492C15.4687 15.2973 15.3411 15.2184 15.2325 15.1172C15.1238 15.016 15.0361 14.8943 14.9745 14.7592C14.9129 14.6241 14.8786 14.4781 14.8734 14.3297C14.8708 14.1448 14.7962 13.9683 14.6655 13.8376C14.5348 13.7068 14.3582 13.6323 14.1734 13.6297C13.9895 13.6323 13.814 13.7072 13.6849 13.8382C13.5558 13.9692 13.4834 14.1457 13.4834 14.3297C13.4886 14.6606 13.559 14.9873 13.6904 15.291C13.8219 15.5948 14.012 15.8697 14.2497 16.1C14.4874 16.3303 14.7682 16.5115 15.0759 16.6332C15.3837 16.755 15.7125 16.815 16.0434 16.8097Z" fill="white"/>
</svg>
